<?xml version="1.0" encoding="UTF-8"?>
<svg id="_Слой_1" data-name="Слой 1" xmlns="http://www.w3.org/2000/svg" viewBox="0 0 593.99 297">
  <defs>
    <style>
      .cls-1 {
        fill: #5e9273;
      }

      .cls-1, .cls-2, .cls-3, .cls-4, .cls-5 {
        stroke-width: 0px;
      }

      .cls-2 {
        fill: #58896c;
      }

      .cls-3 {
        fill: #cf4e69;
      }

      .cls-4 {
        fill: #dd506d;
      }

      .cls-5 {
        fill: #706f6f;
      }
    </style>
  </defs>
  <g>
    <path class="cls-5" d="M170.03,243.89v5h-2.29v-2.7h-10.48v2.7h-2.27v-5h1.14c.83,0,1.23-1.87,1.23-5.58v-7.23h10.84v12.81h1.83ZM165.9,243.89v-10.51h-6.24v4.93c0,2.98-.35,4.83-1.07,5.58h7.32Z"/>
    <path class="cls-5" d="M185.18,230.8c2.12,0,3.94.77,5.44,2.3,1.5,1.54,2.25,3.41,2.25,5.6v1.16h-12.96c.24,1.16.78,2.15,1.64,2.92,1.05.97,2.33,1.46,3.84,1.46.86,0,1.73-.17,2.63-.54.83-.34,1.63-.94,2.41-1.85l1.73,1.57c-.94,1.12-2.02,1.91-3.23,2.42-1.18.47-2.36.73-3.54.73-2.24,0-4.12-.77-5.63-2.27s-2.26-3.37-2.26-5.6.74-4.06,2.24-5.6c1.52-1.52,3.34-2.3,5.44-2.3ZM190.44,237.52c-.26-1.12-.79-2.08-1.62-2.92-1.06-.97-2.27-1.46-3.64-1.46s-2.62.49-3.65,1.46h.02c-.91.86-1.46,1.82-1.64,2.92h10.52Z"/>
    <path class="cls-5" d="M207.22,233.31v12.85h-2.32v-12.85h-4.57v-2.32h11.44v2.32h-4.55Z"/>
    <path class="cls-5" d="M232.9,243.23c-1.86,2.19-3.99,3.28-6.43,3.28-2.16,0-4.01-.75-5.56-2.3-1.53-1.57-2.3-3.41-2.3-5.56s.76-4.03,2.3-5.56c1.56-1.52,3.41-2.3,5.56-2.3,2.4,0,4.53,1.07,6.37,3.22l-1.76,1.52c-1.39-1.61-2.93-2.42-4.61-2.42-1.53,0-2.84.54-3.92,1.63s-1.61,2.4-1.61,3.91.54,2.83,1.61,3.91,2.37,1.61,3.92,1.61c1.73,0,3.28-.82,4.68-2.49l1.75,1.54Z"/>
    <path class="cls-5" d="M243.55,231.06v5.66l6.59-5.66h3.55l-8.56,7.32,9.45,7.79h-3.66l-7.37-6.12v6.12h-2.32v-15.11h2.32Z"/>
    <path class="cls-5" d="M273.13,246.17v-3.05c-1.52,2.02-3.26,3.03-5.26,3.03s-3.84-.73-5.32-2.21h.02c-1.48-1.48-2.23-3.26-2.23-5.32s.75-3.84,2.23-5.32,3.24-2.19,5.3-2.19,3.82,1.05,5.26,3.13v-3.11h2.3v15.04h-2.3ZM267.87,243.85c1.48,0,2.7-.51,3.73-1.52,1.01-1.03,1.52-2.25,1.52-3.71s-.51-2.68-1.52-3.69-2.25-1.54-3.73-1.54-2.7.51-3.71,1.54c-1.01,1.01-1.52,2.25-1.52,3.69s.51,2.68,1.52,3.71c1.01,1.01,2.25,1.52,3.71,1.52Z"/>
    <path class="cls-5" d="M285.28,235.78c0-1.31.47-2.42,1.42-3.35.92-.9,2.08-1.35,3.45-1.35h6.35v15.06h-2.3v-5.71h-4.25l-4.08,5.73h-2.83l4.46-6.57c-1.48-.94-2.23-2.21-2.23-3.82ZM294.2,233.38h-4.06c-.73,0-1.35.24-1.87.71-.47.45-.71,1.03-.71,1.7s.24,1.22.71,1.67c.51.45,1.14.69,1.87.69h4.06v-4.76Z"/>
    <path class="cls-5" d="M333.94,243.23c-1.87,2.19-4.01,3.28-6.44,3.28-2.17,0-4.01-.75-5.56-2.3-1.52-1.57-2.3-3.41-2.3-5.56s.77-4.03,2.3-5.56c1.54-1.52,3.41-2.3,5.56-2.3,2.4,0,4.53,1.07,6.37,3.22l-1.76,1.52c-1.39-1.61-2.94-2.42-4.61-2.42-1.52,0-2.83.54-3.93,1.63-1.07,1.09-1.61,2.4-1.61,3.91s.54,2.83,1.61,3.91,2.38,1.61,3.93,1.61c1.72,0,3.28-.82,4.68-2.49l1.76,1.54Z"/>
    <path class="cls-5" d="M347.82,233.31v12.85h-2.32v-12.85h-4.57v-2.32h11.46v2.32h-4.57Z"/>
    <path class="cls-5" d="M373.48,231.08l-8.22,20.58h-2.47l2.51-6.31-6.44-14.27h2.53l5.11,11.26,4.51-11.26h2.47Z"/>
    <path class="cls-5" d="M395.22,243.89v5h-2.27v-2.7h-10.49v2.7h-2.27v-5h1.14c.84,0,1.24-1.87,1.24-5.58v-7.23h10.84v12.81h1.82ZM391.1,243.89v-10.51h-6.24v4.93c0,2.98-.34,4.83-1.07,5.58h7.32Z"/>
    <path class="cls-5" d="M417.62,231v15.17h-2.3v-11.24l-4.61,5.64c-2.1,2.55-3.63,4.42-4.57,5.58h-2.06v-15.15h2.27v11.24l9.2-11.24h2.06Z"/>
    <path class="cls-5" d="M427.68,235.78c0-1.31.47-2.42,1.42-3.35.92-.9,2.08-1.35,3.45-1.35h6.35v15.06h-2.3v-5.71h-4.25l-4.08,5.73h-2.83l4.46-6.57c-1.48-.94-2.23-2.21-2.23-3.82ZM436.61,233.38h-4.06c-.73,0-1.35.24-1.87.71-.47.45-.71,1.03-.71,1.7s.24,1.22.71,1.67c.51.45,1.14.69,1.87.69h4.06v-4.76Z"/>
  </g>
  <g>
    <path class="cls-2" d="M61.61,161.18v39.57h-4.12v-11.99h-11.82c-.53,0-1.28-.02-2.25-.11l-8.31,12.1h-4.46l8.99-12.83c-2.91-.86-5.13-2.4-6.67-4.61s-2.32-4.91-2.32-8.11c0-4.44,1.41-7.89,4.21-10.34,2.81-2.45,6.61-3.67,11.39-3.67h15.37ZM37.68,182.57c1.9,1.76,4.68,2.64,8.34,2.64h11.48v-20.42h-11.08c-3.69,0-6.55.88-8.56,2.63-2.02,1.75-3.03,4.3-3.03,7.66s.94,5.73,2.85,7.49Z"/>
    <path class="cls-2" d="M100.11,164.79h-21.08l.05,35.95h-4.12v-39.57h25.15v3.62Z"/>
    <path class="cls-2" d="M108.61,198.45c-3.19-1.74-5.68-4.14-7.46-7.21-1.79-3.05-2.69-6.48-2.69-10.28s.9-7.24,2.69-10.29c1.78-3.06,4.27-5.46,7.46-7.21s6.74-2.63,10.65-2.63,7.46.87,10.6,2.6c3.15,1.74,5.63,4.14,7.43,7.21,1.81,3.08,2.71,6.51,2.71,10.32s-.9,7.25-2.71,10.32c-1.8,3.07-4.28,5.47-7.43,7.21-3.14,1.72-6.67,2.6-10.6,2.6s-7.47-.88-10.65-2.64ZM127.75,195.23c2.52-1.42,4.5-3.37,5.93-5.88,1.43-2.51,2.15-5.3,2.15-8.39s-.72-5.89-2.15-8.4c-1.44-2.5-3.41-4.46-5.93-5.88-2.53-1.41-5.35-2.11-8.49-2.11s-5.96.71-8.51,2.11c-2.54,1.42-4.54,3.38-5.99,5.88-1.45,2.51-2.18,5.31-2.18,8.4s.73,5.88,2.18,8.39,3.44,4.46,5.99,5.88,5.39,2.12,8.51,2.12,5.95-.71,8.49-2.12Z"/>
    <path class="cls-2" d="M188.29,197.12v12.51h-3.91v-8.88h-35.16l-.05,8.88h-3.91l.05-12.51h4.98v-19.27c0-5.5,1.48-9.71,4.44-12.64,2.95-2.92,6.97-4.38,12.07-4.38s9.11,1.46,12.07,4.38c2.95,2.93,4.43,7.13,4.43,12.64v19.27h4.98ZM179.13,197.12v-19.68c0-4.25-1.08-7.46-3.25-9.62-2.17-2.17-5.19-3.25-9.07-3.25s-6.96,1.08-9.13,3.25-3.25,5.37-3.25,9.62v19.68h24.7Z"/>
    <path class="cls-2" d="M225,165.33c2.96,2.99,4.43,7.32,4.43,12.97v22.44h-4.12v-11.65h-24.88v11.65h-4.07v-22.44c0-5.65,1.48-9.98,4.44-12.97,2.95-2.99,6.97-4.5,12.07-4.5s9.16,1.5,12.12,4.5ZM225.32,185.49v-7.57c0-4.42-1.09-7.75-3.28-9.99s-5.24-3.36-9.15-3.36-6.97,1.12-9.16,3.36-3.28,5.57-3.28,9.99v7.57h24.88Z"/>
    <path class="cls-3" d="M298.13,161.18v39.57h-4.01v-31.66l-15.53,26.64h-2l-15.53-26.47v31.49h-4.01v-39.57h3.45l17.17,29.33,17.02-29.33h3.45Z"/>
    <path class="cls-3" d="M339.54,165.33c2.96,2.99,4.44,7.32,4.44,12.97v22.44h-4.14v-11.65h-24.87v11.65h-4.06v-22.44c0-5.65,1.46-9.98,4.42-12.97,2.96-2.99,6.99-4.5,12.08-4.5s9.16,1.5,12.12,4.5ZM339.84,185.49v-7.57c0-4.42-1.09-7.75-3.26-9.99-2.19-2.24-5.26-3.36-9.16-3.36s-6.97,1.12-9.16,3.36-3.28,5.57-3.28,9.99v7.57h24.87Z"/>
    <path class="cls-3" d="M384.1,165.24c2.85,2.94,4.29,7.15,4.29,12.61v22.89h-4.18v-23.3c0-4.25-1.03-7.46-3.11-9.62-2.06-2.17-4.96-3.25-8.69-3.25s-6.72,1.08-8.8,3.25c-2.1,2.17-3.13,5.37-3.13,9.62v23.3h-8.95v-3.63h4.76v-19.27c0-5.46,1.44-9.67,4.36-12.61,2.9-2.94,6.82-4.41,11.76-4.41s8.82,1.47,11.69,4.41Z"/>
    <path class="cls-3" d="M432.49,161.18v39.57h-4.01v-6.67c-2.6,4.68-7.04,7.02-13.28,7.02-4.72,0-8.41-1.42-11.07-4.25-2.68-2.83-4.01-6.84-4.01-12.1v-23.56h4.16v23.45c0,4.18,1.03,7.36,3.09,9.51s4.93,3.22,8.63,3.22c3.88,0,6.91-1.14,9.08-3.41,2.17-2.3,3.24-5.71,3.24-10.28v-22.49h4.18Z"/>
    <path class="cls-3" d="M478.66,161.18v39.57h-4.12v-18.26h-24.76v18.26h-4.18v-39.57h4.18v17.64h24.76v-17.64h4.12Z"/>
    <path class="cls-3" d="M505.12,182.59h-9.03v18.15h-4.08v-39.57h4.08v17.74h9.03l13.39-17.74h4.53l-14.7,19.23,15.56,20.34h-4.81l-13.97-18.15Z"/>
    <path class="cls-3" d="M558.91,165.33c2.96,2.99,4.44,7.32,4.44,12.97v22.44h-4.14v-11.65h-24.87v11.65h-4.06v-22.44c0-5.65,1.46-9.98,4.42-12.97,2.96-2.99,6.99-4.5,12.08-4.5s9.16,1.5,12.12,4.5ZM559.21,185.49v-7.57c0-4.42-1.09-7.75-3.26-9.99-2.19-2.24-5.26-3.36-9.16-3.36s-6.97,1.12-9.16,3.36-3.28,5.57-3.28,9.99v7.57h24.87Z"/>
  </g>
  <g>
    <path class="cls-1" d="M292.29,108.35c-19.89,9.57-27.7,5.53-43.33-23.12-15.5,15.66-33.87,26-55.05,31.29-22.36,5.59-44.49,6.34-66.02-3.18-3.1-1.37-9.56-1.79-6.39-8.03,2.89-5.7,7.07-1.88,10.63-.33,24.83,10.85,49.23,7.9,73.47-2.1,9.44-3.9,18.93-7.65,28.84-16.04-20.58,3.69-38.81,6.38-57.31,5.92-9.04-.23-18.05-.95-26.37-4.76-15.18-6.94-16.93-21.34-2.97-30.44,21.13-13.78,69.79-19.25,98.45,1.69,3.11,2.28,8.09,6.09,5.02,9.93-4.08,5.1-7.53-.39-10.91-3.13-12.2-9.9-27.07-11.86-41.89-12.49-13.9-.58-27.55,2.23-40.33,8.14-5.13,2.38-10.52,5.41-9.45,12.02.99,6.12,7.12,7.28,12.07,8.17,21.47,3.83,42.75.75,63.97-2.53,8.19-1.27,16.39-2.56,24.51-4.22,5.65-1.15,8.52,1.07,9.74,6.36.39,1.67,1.1,3.28,1.67,4.91,6.01,17.14,11.93,19.79,28.85,12.9.94,3.01,1.88,6.03,2.81,9.04Z"/>
    <path class="cls-4" d="M292.29,108.35c-.94-3.01-1.88-6.03-2.81-9.04,14.55-11.06,24.74-25.97,35.53-40.35,3.95-5.26,7.68-11.63,15.68-9.25,7.41,2.2,9.05,8.88,9.75,15.69.95,9.28,1.77,18.58,2.73,27.86,1.11,10.84,5.54,13.32,15.12,8.27,8.99-4.74,16.02-12,23.38-18.81,6.6-6.11,12.89-12.61,19.89-18.23,10.39-8.33,19.84-5.36,23.97,7.41,1.79,5.55,2.27,11.51,3.52,17.25,3.12,14.31,12.66,17.91,23.97,9.02,1.56-1.23,2.86-2.18,4.74-3.62,2.5-1.91,4.26-2.79,6.39-.06,1.9,2.44,2.39,5.01-.13,7.4-7.3,6.9-15.6,11.85-26.02,10.41-9.74-1.35-14.95-8.11-17.27-17.16-1.46-5.67-2.14-11.55-3.59-17.23-2.19-8.52-6.53-10.03-13.11-4.12-8.48,7.63-16.29,16-24.71,23.71-4.56,4.18-9.44,8.23-14.77,11.32-15.29,8.85-27.99,2.44-30.54-15.17-1.14-7.87-1.6-15.84-2.74-23.71-.42-2.9-.07-7.03-3.42-8.07-3.58-1.11-5.12,2.89-6.93,5.15-5.19,6.48-9.82,13.4-15.1,19.8-6.8,8.24-13.43,16.8-23.51,21.51Z"/>
  </g>
</svg>